<?xml version="1.0" encoding="UTF-8" ?>
<!DOCTYPE svg PUBLIC "-//W3C//DTD SVG 1.1//EN" "http://www.w3.org/Graphics/SVG/1.1/DTD/svg11.dtd">
<svg width="152pt" height="136pt" viewBox="0 0 152 136" version="1.1" xmlns="http://www.w3.org/2000/svg">
<g id="#1d190fea">
<path fill="#1d190f" opacity="0.92" d=" M 75.06 8.03 C 78.28 5.46 82.63 4.86 86.02 2.48 C 87.46 2.41 88.90 2.34 90.34 2.28 C 91.55 4.36 93.18 6.39 93.28 8.90 C 93.62 14.43 95.91 19.55 97.32 24.85 C 98.37 28.24 99.35 31.64 100.32 35.05 C 101.57 39.78 101.51 44.69 101.37 49.54 C 105.23 50.25 109.08 51.07 112.96 51.70 C 114.62 52.20 116.28 52.67 117.93 53.16 C 123.63 54.72 129.22 56.67 134.92 58.22 C 140.17 60.02 145.43 61.80 150.66 63.67 C 150.65 65.16 150.64 66.65 150.63 68.14 C 146.79 71.19 143.20 74.58 138.98 77.14 C 132.94 78.67 126.59 77.86 120.64 79.81 C 115.14 81.43 108.47 82.09 104.96 87.20 C 103.75 89.94 104.40 93.10 104.40 96.02 C 104.97 102.34 103.60 108.81 105.24 115.03 C 106.42 119.74 107.83 124.45 107.73 129.36 C 103.75 131.25 99.84 133.28 96.11 135.63 C 94.79 135.55 93.48 135.47 92.17 135.40 C 89.26 133.91 86.10 132.65 83.93 130.10 C 81.01 126.55 76.55 124.89 73.43 121.56 C 70.18 117.99 64.80 117.01 62.29 112.69 C 60.87 110.94 60.03 108.51 58.06 107.35 C 50.75 110.46 42.66 110.93 35.40 114.16 C 30.49 116.19 25.19 116.88 19.96 117.58 C 18.79 116.80 17.62 116.02 16.44 115.25 C 16.49 114.15 16.54 113.05 16.58 111.95 C 20.64 105.93 24.72 99.82 27.19 92.93 C 28.61 88.63 31.13 84.70 31.80 80.17 C 28.19 78.17 24.99 75.43 22.82 71.88 C 19.96 67.20 15.32 63.98 12.50 59.27 C 10.13 55.21 6.23 52.46 2.45 49.83 C 2.32 47.66 2.26 45.49 2.25 43.32 C 6.70 42.27 10.81 40.25 14.98 38.46 C 20.44 37.75 25.81 39.49 31.23 39.80 C 38.98 41.73 46.97 41.26 54.87 41.32 C 59.11 36.95 62.20 31.67 65.99 26.94 C 70.47 21.37 70.62 13.60 75.06 8.03 M 80.60 8.68 C 82.44 24.05 90.89 38.18 90.03 53.94 C 91.42 53.39 92.81 52.87 94.19 52.30 C 95.49 51.67 96.78 51.03 98.07 50.37 C 99.42 34.54 90.57 20.40 89.09 4.95 C 86.30 6.29 83.48 7.56 80.60 8.68 M 68.56 28.49 C 62.83 35.99 56.69 43.73 54.88 53.25 C 47.90 48.32 39.02 49.05 30.93 49.01 C 23.06 49.23 15.76 45.65 7.99 45.07 C 6.36 44.81 4.92 45.81 3.47 46.39 C 7.03 49.82 11.34 52.48 14.27 56.54 C 16.48 59.69 18.96 62.64 21.61 65.43 C 24.42 68.33 26.21 72.09 29.38 74.66 C 32.54 77.37 36.25 79.30 39.79 81.44 C 38.77 81.63 36.75 82.00 35.74 82.18 C 32.25 86.48 31.34 92.11 28.88 96.95 C 26.45 103.05 22.23 108.15 19.24 113.95 C 28.72 114.26 36.96 108.89 46.15 107.65 C 51.68 106.63 56.13 102.65 59.29 98.19 C 61.73 106.86 68.94 112.78 75.16 118.80 C 81.37 123.75 87.34 129.10 94.32 132.97 C 93.19 126.91 90.64 121.13 90.40 114.91 C 89.92 108.56 91.94 102.24 90.87 95.91 C 90.51 93.31 89.59 90.85 88.68 88.41 C 95.51 86.47 101.83 83.18 108.46 80.70 C 115.70 77.86 123.04 74.43 131.00 74.58 C 134.14 74.68 137.45 74.43 139.96 72.30 C 136.39 69.35 131.71 68.61 127.36 67.49 C 122.41 66.37 117.55 64.88 112.80 63.10 C 104.58 60.01 95.83 58.86 87.27 57.14 C 87.12 54.06 87.87 50.99 87.52 47.91 C 86.58 38.74 83.53 29.98 80.68 21.27 C 79.28 17.20 79.09 12.86 78.00 8.71 C 74.02 14.89 73.09 22.59 68.56 28.49 M 12.05 43.03 C 18.37 44.21 24.46 46.88 30.99 46.62 C 38.58 46.49 46.42 46.52 53.55 49.46 C 54.06 47.88 54.61 46.30 55.15 44.72 C 47.92 44.20 40.60 44.81 33.45 43.44 C 28.67 42.41 23.86 41.49 19.02 40.76 C 16.46 40.34 14.30 42.12 12.05 43.03 M 91.94 55.12 C 99.59 56.79 107.32 58.20 114.67 60.99 C 123.63 64.32 133.21 65.92 141.91 69.94 C 144.20 68.78 146.42 67.50 148.59 66.14 C 140.34 63.04 131.58 61.61 123.39 58.35 C 118.20 56.20 112.64 55.35 107.17 54.26 C 102.21 53.10 96.46 52.13 91.94 55.12 M 91.99 89.94 C 94.01 95.75 94.05 101.97 93.14 108.00 C 91.76 116.03 94.84 123.77 96.60 131.46 C 99.24 129.77 102.02 128.32 104.91 127.11 C 102.39 118.96 99.90 110.43 101.38 101.82 C 102.27 96.76 101.79 91.61 100.65 86.63 C 97.76 87.72 94.90 88.89 91.99 89.94 Z" />
<path fill="#1d190f" opacity="0.92" d=" M 74.52 38.13 C 78.05 41.76 76.97 47.33 75.88 51.76 C 74.24 57.28 72.24 63.23 67.54 66.93 C 67.21 66.92 66.54 66.89 66.21 66.87 C 65.07 56.97 66.01 44.75 74.52 38.13 M 67.76 64.32 C 72.59 57.69 75.39 49.20 74.23 40.98 C 68.24 47.12 67.80 56.24 67.76 64.32 Z" />
<path fill="#1d190f" opacity="0.92" d=" M 26.97 56.52 C 32.10 55.34 37.31 56.60 42.34 57.65 C 49.26 59.16 56.02 63.01 59.85 69.10 C 55.18 71.52 49.86 70.10 45.03 68.98 C 37.75 67.22 31.03 62.90 26.97 56.52 M 30.51 58.22 C 37.35 65.65 47.57 68.95 57.51 68.45 C 50.60 61.11 40.25 58.60 30.51 58.22 Z" />
<path fill="#1d190f" opacity="0.92" d=" M 62.21 64.76 C 64.62 67.50 67.90 68.61 71.50 68.54 C 70.33 71.34 70.01 74.32 71.04 77.23 C 67.73 76.22 65.11 77.92 62.77 80.02 C 62.21 77.25 61.11 74.69 58.19 73.79 C 59.46 72.81 60.79 71.90 61.94 70.76 C 62.28 68.78 62.13 66.76 62.21 64.76 M 64.54 69.35 C 63.83 70.81 63.08 72.25 62.28 73.65 C 62.82 74.46 63.36 75.26 63.89 76.07 C 65.33 75.47 66.79 74.89 68.25 74.33 C 68.38 73.04 68.53 71.74 68.69 70.45 C 67.30 70.11 65.92 69.75 64.54 69.35 Z" />
<path fill="#1d190f" opacity="0.92" d=" M 71.48 72.90 C 81.72 66.86 94.19 66.15 105.61 68.58 C 106.72 68.91 108.33 69.08 107.89 70.66 C 101.51 75.90 92.90 76.86 84.97 77.52 C 80.22 77.60 74.33 77.35 71.48 72.90 M 74.59 73.65 C 77.31 74.50 80.10 75.24 82.98 75.14 C 90.54 75.02 98.24 73.76 105.06 70.35 C 94.89 68.53 83.92 68.75 74.59 73.65 Z" />
<path fill="#1d190f" opacity="0.92" d=" M 116.44 71.74 C 122.69 71.80 128.96 71.67 135.16 72.54 C 131.71 72.46 128.27 72.40 124.83 72.53 C 122.04 72.79 119.28 73.21 116.50 73.49 C 116.49 73.06 116.46 72.18 116.44 71.74 Z" />
<path fill="#1d190f" opacity="0.92" d=" M 46.11 86.16 C 50.03 82.71 54.57 80.00 59.50 78.28 C 60.07 84.50 56.56 90.09 52.22 94.21 C 46.62 99.23 40.32 103.66 33.12 106.03 C 30.72 107.91 27.92 109.18 24.92 109.75 C 26.58 108.71 28.09 107.16 30.21 107.28 C 30.70 106.94 31.68 106.26 32.16 105.92 C 32.42 104.44 32.78 102.94 33.72 101.73 C 37.47 96.27 40.91 90.41 46.11 86.16 M 34.89 103.35 C 41.22 100.65 46.86 96.50 51.81 91.76 C 54.74 88.96 56.56 85.25 57.48 81.34 C 47.34 85.39 40.57 94.45 34.89 103.35 Z" />
<path fill="#1d190f" opacity="0.92" d=" M 67.42 89.44 C 66.69 85.80 65.44 81.85 67.18 78.30 C 71.29 79.55 75.04 82.23 76.66 86.33 C 80.84 95.75 81.77 106.27 82.34 116.43 C 80.44 114.67 78.76 112.68 77.46 110.44 C 73.52 103.76 69.46 96.99 67.42 89.44 M 68.35 80.90 C 68.46 91.95 74.69 101.37 79.85 110.68 C 78.54 101.84 77.95 92.47 73.30 84.60 C 72.31 82.65 70.12 81.92 68.35 80.90 Z" />
</g>
<g id="#fdd276ff">
<path fill="#fdd276" opacity="1.00" d=" M 80.60 8.68 C 83.48 7.56 86.30 6.29 89.09 4.95 C 90.57 20.40 99.42 34.54 98.07 50.37 C 96.78 51.03 95.49 51.67 94.19 52.30 C 92.81 52.87 91.42 53.39 90.03 53.94 C 90.89 38.18 82.44 24.05 80.60 8.68 Z" />
<path fill="#fdd276" opacity="1.00" d=" M 68.56 28.49 C 73.09 22.59 74.02 14.89 78.00 8.71 C 79.09 12.86 79.28 17.20 80.68 21.27 C 83.53 29.98 86.58 38.74 87.52 47.91 C 87.87 50.99 87.12 54.06 87.27 57.14 C 95.83 58.86 104.58 60.01 112.80 63.10 C 117.55 64.88 122.41 66.37 127.36 67.49 C 131.71 68.61 136.39 69.35 139.96 72.30 C 137.45 74.43 134.14 74.68 131.00 74.58 C 123.04 74.43 115.70 77.86 108.46 80.70 C 101.83 83.18 95.51 86.47 88.68 88.41 C 89.59 90.85 90.51 93.31 90.87 95.91 C 91.94 102.24 89.92 108.56 90.40 114.91 C 90.64 121.13 93.19 126.91 94.32 132.97 C 87.34 129.10 81.37 123.75 75.16 118.80 C 68.94 112.78 61.73 106.86 59.29 98.19 C 56.13 102.65 51.68 106.63 46.15 107.65 C 36.96 108.89 28.72 114.26 19.24 113.95 C 22.23 108.15 26.45 103.05 28.88 96.95 C 31.34 92.11 32.25 86.48 35.74 82.18 C 36.75 82.00 38.77 81.63 39.79 81.44 C 36.25 79.30 32.54 77.37 29.38 74.66 C 26.21 72.09 24.42 68.33 21.61 65.43 C 18.96 62.64 16.48 59.69 14.27 56.54 C 11.34 52.48 7.03 49.82 3.47 46.39 C 4.92 45.81 6.36 44.81 7.99 45.07 C 15.76 45.65 23.06 49.23 30.93 49.01 C 39.02 49.05 47.90 48.32 54.88 53.25 C 56.69 43.73 62.83 35.99 68.56 28.49 M 74.52 38.13 C 66.01 44.75 65.07 56.97 66.21 66.87 C 66.54 66.89 67.21 66.92 67.54 66.93 C 72.24 63.23 74.24 57.28 75.88 51.76 C 76.97 47.33 78.05 41.76 74.52 38.13 M 26.97 56.52 C 31.03 62.90 37.75 67.22 45.03 68.98 C 49.86 70.10 55.18 71.52 59.85 69.10 C 56.02 63.01 49.26 59.16 42.34 57.65 C 37.31 56.60 32.10 55.34 26.97 56.52 M 62.21 64.76 C 62.13 66.76 62.28 68.78 61.94 70.76 C 60.79 71.90 59.46 72.81 58.19 73.79 C 61.11 74.69 62.21 77.25 62.77 80.02 C 65.11 77.92 67.73 76.22 71.04 77.23 C 70.01 74.32 70.33 71.34 71.50 68.54 C 67.90 68.61 64.62 67.50 62.21 64.76 M 71.48 72.90 C 74.33 77.35 80.22 77.60 84.97 77.52 C 92.90 76.86 101.51 75.90 107.89 70.66 C 108.33 69.08 106.72 68.91 105.61 68.58 C 94.19 66.15 81.72 66.86 71.48 72.90 M 116.44 71.74 C 116.46 72.18 116.49 73.06 116.50 73.49 C 119.28 73.21 122.04 72.79 124.83 72.53 C 128.27 72.40 131.71 72.46 135.16 72.54 C 128.96 71.67 122.69 71.80 116.44 71.74 M 46.11 86.16 C 40.91 90.41 37.47 96.27 33.72 101.73 C 32.78 102.94 32.42 104.44 32.16 105.92 C 31.68 106.26 30.70 106.94 30.21 107.28 C 28.09 107.16 26.58 108.71 24.92 109.75 C 27.92 109.18 30.72 107.91 33.12 106.03 C 40.32 103.66 46.62 99.23 52.22 94.21 C 56.56 90.09 60.07 84.50 59.50 78.28 C 54.57 80.00 50.03 82.71 46.11 86.16 M 67.42 89.44 C 69.46 96.99 73.52 103.76 77.46 110.44 C 78.76 112.68 80.44 114.67 82.34 116.43 C 81.77 106.27 80.84 95.75 76.66 86.33 C 75.04 82.23 71.29 79.55 67.18 78.30 C 65.44 81.85 66.69 85.80 67.42 89.44 Z" />
<path fill="#fdd276" opacity="1.00" d=" M 12.05 43.03 C 14.30 42.12 16.46 40.34 19.02 40.76 C 23.86 41.49 28.67 42.41 33.45 43.44 C 40.60 44.81 47.92 44.20 55.15 44.72 C 54.61 46.30 54.06 47.88 53.55 49.46 C 46.42 46.52 38.58 46.49 30.99 46.62 C 24.46 46.88 18.37 44.21 12.05 43.03 Z" />
<path fill="#fdd276" opacity="1.00" d=" M 67.76 64.32 C 67.80 56.24 68.24 47.12 74.23 40.98 C 75.39 49.20 72.59 57.69 67.76 64.32 Z" />
<path fill="#fdd276" opacity="1.00" d=" M 91.94 55.12 C 96.46 52.13 102.21 53.10 107.17 54.26 C 112.64 55.35 118.20 56.20 123.39 58.35 C 131.58 61.61 140.34 63.04 148.59 66.14 C 146.42 67.50 144.20 68.78 141.91 69.94 C 133.21 65.92 123.63 64.32 114.67 60.99 C 107.32 58.20 99.59 56.79 91.94 55.12 Z" />
<path fill="#fdd276" opacity="1.00" d=" M 30.51 58.22 C 40.25 58.60 50.60 61.11 57.51 68.45 C 47.57 68.95 37.35 65.65 30.51 58.22 Z" />
<path fill="#fdd276" opacity="1.00" d=" M 64.54 69.35 C 65.92 69.75 67.30 70.11 68.69 70.45 C 68.53 71.74 68.38 73.04 68.25 74.33 C 66.79 74.89 65.33 75.47 63.89 76.07 C 63.36 75.26 62.82 74.46 62.28 73.65 C 63.08 72.25 63.83 70.81 64.54 69.35 Z" />
<path fill="#fdd276" opacity="1.00" d=" M 74.59 73.65 C 83.92 68.75 94.89 68.53 105.06 70.35 C 98.24 73.76 90.54 75.02 82.98 75.14 C 80.10 75.24 77.31 74.50 74.59 73.65 Z" />
<path fill="#fdd276" opacity="1.00" d=" M 34.89 103.35 C 40.57 94.45 47.34 85.39 57.48 81.34 C 56.56 85.25 54.74 88.96 51.81 91.76 C 46.86 96.50 41.22 100.65 34.89 103.35 Z" />
<path fill="#fdd276" opacity="1.00" d=" M 68.35 80.90 C 70.12 81.92 72.31 82.65 73.30 84.60 C 77.95 92.47 78.54 101.84 79.85 110.68 C 74.69 101.37 68.46 91.95 68.35 80.90 Z" />
<path fill="#fdd276" opacity="1.00" d=" M 91.99 89.94 C 94.90 88.89 97.76 87.72 100.65 86.63 C 101.79 91.61 102.27 96.76 101.38 101.82 C 99.90 110.43 102.39 118.96 104.91 127.11 C 102.02 128.32 99.24 129.77 96.60 131.46 C 94.84 123.77 91.76 116.03 93.14 108.00 C 94.05 101.97 94.01 95.75 91.99 89.94 Z" />
</g>
</svg>
